<?xml version="1.0" encoding="UTF-8" standalone="yes"?>
<!DOCTYPE svg PUBLIC "-//W3C//DTD SVG 1.1//EN" "http://www.w3.org/Graphics/SVG/1.1/DTD/svg11.dtd">

<svg width="376" height="89" viewBox="0 0 376 89" xmlns="http://www.w3.org/2000/svg" xmlns:xlink="http://www.w3.org/1999/xlink" version="1.1" baseProfile="full">
    <defs>
        <linearGradient id="105553158972400140262046444640" x1="49.999992%" x2="49.999992%" y1="100.000000%" y2="0.000001%">
            <stop offset="0%" style="stop-color:#fc8627;stop-opacity:1.000000"></stop>
            <stop offset="100%" style="stop-color:#fc6127;stop-opacity:1.000000"></stop>
        </linearGradient>
        <linearGradient id="105553158974000140261929390064" x1="50.000000%" x2="50.000000%" y1="0.000000%" y2="100.000000%">
            <stop offset="0%" style="stop-color:#1e2226;stop-opacity:1.000000"></stop>
            <stop offset="100%" style="stop-color:#333c46;stop-opacity:1.000000"></stop>
        </linearGradient>
    </defs>
    <g transform="scale(1,-1) translate(0,-89)">
        <path d="M 26.000000 88.423309 L 351.000000 88.423309 C 364.807119 88.423309 376.000000 77.230428 376.000000 63.423309 L 376.000000 26.000000 C 376.000000 12.192881 364.807119 1.000000 351.000000 1.000000 L 26.000000 1.000000 C 12.192881 1.000000 1.000000 12.192881 1.000000 26.000000 L 1.000000 63.423309 C 1.000000 77.230428 12.192881 88.423309 26.000000 88.423309 Z" transform="scale(1.000000,1.000000) translate(-0.000000,-0.211067)" fill="#fee1c6" opacity="1.000000"></path>
        <path d="M 353.286400 1.821400 L 354.556100 1.918000 L 355.807200 2.076900 L 357.038300 2.296800 L 358.247800 2.575900 L 359.434200 2.912800 L 360.595800 3.305900 L 361.731100 3.753500 L 362.838500 4.254200 L 363.916400 4.806200 L 364.963400 5.408200 L 365.977700 6.058500 L 366.957800 6.755500 L 367.902300 7.497700 L 368.809400 8.283400 L 369.677600 9.111200 L 370.505400 9.979400 L 371.291200 10.886600 L 372.033300 11.831000 L 372.730300 12.811100 L 373.380600 13.825500 L 373.982600 14.872400 L 374.534700 15.950300 L 375.035300 17.057800 L 375.483000 18.193000 L 375.876000 19.354600 L 376.212900 20.541000 L 376.492000 21.750500 L 376.711900 22.981600 L 376.870900 24.232800 L 376.967400 25.502400 L 377.000000 26.788900 L 377.000000 64.212200 L 376.967400 65.498700 L 376.870900 66.768300 L 376.711900 68.019400 L 376.492000 69.250600 L 376.212900 70.460100 L 375.876000 71.646400 L 375.483000 72.808000 L 375.035300 73.943300 L 374.534700 75.050700 L 373.982600 76.128700 L 373.380600 77.175600 L 372.730300 78.189900 L 372.033300 79.170100 L 371.291200 80.114500 L 370.505400 81.021600 L 369.677600 81.889900 L 368.809400 82.717600 L 367.902300 83.503400 L 366.957800 84.245600 L 365.977700 84.942600 L 364.963400 85.592900 L 363.916400 86.194800 L 362.838500 86.746900 L 361.731100 87.247600 L 360.595800 87.695200 L 359.434200 88.088200 L 358.247800 88.425100 L 357.038300 88.704300 L 355.807200 88.924100 L 354.556100 89.083100 L 353.286400 89.179700 L 352.000000 89.212200 L 27.000000 89.212200 L 25.713500 89.179700 L 24.443800 89.083100 L 23.192700 88.924100 L 21.961600 88.704300 L 20.752100 88.425100 L 19.565700 88.088200 L 18.404100 87.695200 L 17.268800 87.247600 L 16.161400 86.746900 L 15.083500 86.194800 L 14.036500 85.592900 L 13.022200 84.942600 L 12.042100 84.245600 L 11.097600 83.503400 L 10.190500 82.717600 L 9.322300 81.889900 L 8.494500 81.021600 L 7.708700 80.114500 L 6.966600 79.170100 L 6.269600 78.189900 L 5.619300 77.175600 L 5.017300 76.128700 L 4.465200 75.050700 L 3.964600 73.943300 L 3.516900 72.808000 L 3.123900 71.646400 L 2.787000 70.460100 L 2.507900 69.250600 L 2.288000 68.019400 L 2.129000 66.768300 L 2.032500 65.498700 L 2.000000 64.212200 L 1.999900 26.788900 L 2.032500 25.502400 L 2.129000 24.232800 L 2.288000 22.981600 L 2.507900 21.750500 L 2.787000 20.541000 L 3.123900 19.354600 L 3.516900 18.193000 L 3.964600 17.057800 L 4.465200 15.950300 L 5.017300 14.872400 L 5.619300 13.825500 L 6.269600 12.811100 L 6.966600 11.831000 L 7.708700 10.886600 L 8.494500 9.979400 L 9.322300 9.111200 L 10.190500 8.283400 L 11.097600 7.497700 L 12.042100 6.755500 L 13.022200 6.058500 L 14.036500 5.408200 L 15.083500 4.806200 L 16.161400 4.254200 L 17.268800 3.753500 L 18.404100 3.305900 L 19.565700 2.912800 L 20.752100 2.575900 L 21.961600 2.296800 L 23.192700 2.076900 L 24.443800 1.918000 L 25.713500 1.821400 L 27.000000 1.788900 L 352.000000 1.788900 Z M 25.892000 5.317900 L 24.797200 5.401200 L 23.720200 5.538000 L 22.662800 5.726900 L 21.623900 5.966600 L 20.607000 6.255400 L 19.606400 6.594000 L 18.632500 6.978000 L 17.681000 7.408200 L 16.754900 7.882400 L 15.854200 8.400300 L 14.981700 8.959700 L 14.138500 9.559300 L 13.326500 10.197400 L 12.545500 10.873900 L 11.797900 11.586800 L 11.085000 12.334400 L 10.409500 13.114200 L 9.769500 13.928700 L 9.171200 14.770000 L 8.611200 15.643500 L 8.093300 16.544200 L 7.619700 17.468800 L 7.188800 18.422300 L 6.804100 19.397500 L 6.467100 20.393900 L 6.177700 21.412800 L 5.938000 22.451700 L 5.748900 23.510400 L 5.612300 24.585400 L 5.528900 25.682000 L 5.499800 26.788800 L 5.498800 64.123800 L 5.529000 65.320700 L 5.612300 66.415500 L 5.748900 67.490800 L 5.937900 68.549000 L 6.177600 69.587600 L 6.467200 70.607500 L 6.804400 71.604100 L 7.188800 72.579000 L 7.618900 73.530400 L 8.093800 74.457600 L 8.611500 75.358000 L 9.171200 76.231000 L 9.769100 77.071800 L 10.409600 77.886800 L 11.085700 78.667400 L 11.797800 79.414300 L 12.544600 80.126300 L 13.326400 80.803500 L 14.138500 81.441700 L 14.981700 82.041300 L 15.854300 82.600800 L 16.754700 83.118400 L 17.681100 83.592900 L 18.632500 84.023000 L 19.608100 84.407700 L 20.605000 84.744900 L 21.622800 85.034000 L 22.663300 85.274200 L 23.722300 85.463200 L 24.796100 85.599700 L 25.892000 85.683100 L 27.044800 85.712200 L 351.911600 85.713300 L 353.107800 85.683100 L 354.203700 85.599700 L 355.277500 85.463200 L 356.336500 85.274200 L 357.377000 85.034000 L 358.394800 84.744900 L 359.391700 84.407700 L 360.367300 84.023000 L 361.318700 83.592900 L 362.245100 83.118400 L 363.145500 82.600800 L 364.018100 82.041300 L 364.861300 81.441700 L 365.673400 80.803500 L 366.455200 80.126300 L 367.202000 79.414300 L 367.914100 78.667400 L 368.590200 77.886800 L 369.230700 77.071800 L 369.828600 76.231000 L 370.388300 75.358000 L 370.906000 74.457600 L 371.380900 73.530400 L 371.811000 72.579000 L 372.195400 71.604100 L 372.532600 70.607500 L 372.822200 69.587600 L 373.061900 68.549000 L 373.250900 67.490800 L 373.387500 66.415500 L 373.470900 65.319000 L 373.500000 64.212200 L 373.501100 26.877500 L 373.470800 25.680300 L 373.387500 24.585400 L 373.250900 23.510400 L 373.061800 22.451700 L 372.822100 21.412800 L 372.532700 20.393900 L 372.195700 19.397500 L 371.811000 18.422300 L 371.380100 17.468800 L 370.906500 16.544200 L 370.388600 15.643500 L 369.828600 14.770000 L 369.230300 13.928700 L 368.590300 13.114200 L 367.914800 12.334400 L 367.201900 11.586800 L 366.454300 10.873900 L 365.673300 10.197400 L 364.861300 9.559300 L 364.018100 8.959700 L 363.145600 8.400300 L 362.244900 7.882400 L 361.318800 7.408200 L 360.367300 6.978000 L 359.393400 6.594000 L 358.392800 6.255400 L 357.375900 5.966600 L 356.337000 5.726900 L 355.279600 5.538000 L 354.202600 5.401200 L 353.106300 5.317800 L 352.000000 5.288900 L 27.088300 5.287700 Z" transform="scale(1.000000,1.000000) translate(-1.000000,-1.000000)" fill="#f8680f" opacity="1.000000"></path>
        <path d="M 60.010733 9.006135 C 59.412574 7.533742 58.055212 5.440184 56.145703 3.967791 C 55.041409 3.116564 53.730059 2.288343 51.912574 1.759202 C 49.980059 1.184049 47.610427 1.000000 44.642636 1.000000 L 17.541411 1.000000 C 14.596625 1.000000 12.203988 1.184049 10.271472 1.759202 C 8.453987 2.288344 7.142638 3.116564 6.038343 3.967791 C 4.128834 5.440184 2.771472 7.533742 2.196319 9.006135 C 1.023006 12.019938 1.000000 15.401840 1.000000 17.541411 L 1.000000 44.642636 C 1.000000 46.782206 1.023006 50.164108 2.196319 53.154906 C 2.771472 54.650304 4.128834 56.743862 6.038343 58.216255 C 7.142638 59.067482 8.453987 59.872697 10.271472 60.424844 C 12.203987 60.999997 14.596625 61.184046 17.541411 61.184046 L 44.642636 61.184046 C 47.610427 61.184046 49.980059 60.999997 51.912574 60.424844 C 53.730059 59.872697 55.041409 59.067482 56.145703 58.216255 C 58.055212 56.743863 59.412574 54.650304 60.010733 53.154906 C 61.184046 50.164108 61.184046 46.782206 61.184046 44.642636 L 61.184046 17.541411 C 61.184046 15.401840 61.184046 12.019938 60.010733 9.006135 Z M 60.010733 9.006135 Z" transform="scale(1.000000,1.000000) translate(13.803684,13.224530)" fill="url(#105553158972400140262046444640)" opacity="1.000000"></path>
        <path d="M 47.012268 24.006134 C 47.012268 11.300197 36.712071 1.000000 24.006134 1.000000 C 11.300197 1.000000 1.000000 11.300197 1.000000 24.006134 C 1.000000 36.712071 11.300197 47.012268 24.006134 47.012268 C 36.712071 47.012268 47.012268 36.712071 47.012268 24.006134 Z" transform="scale(1.000000,1.000000) translate(20.705521,20.494469)" fill="#fffefe" opacity="1.000000"></path>
        <path d="M 26.306747 1.000000 C 12.319018 1.000000 1.000000 12.319018 1.000000 26.306747 C 1.000000 40.294477 12.319018 51.613495 26.306747 51.613495 C 40.294477 51.613495 51.613495 40.294477 51.613495 26.306747 C 51.613495 12.319018 40.294477 1.000000 26.306747 1.000000 Z M 26.306747 10.961656 L 28.262269 12.917177 L 26.306747 20.187116 L 24.351226 12.917177 Z M 23.891103 11.145705 L 22.924846 7.602760 L 25.202453 9.857362 Z M 28.722391 11.145705 L 27.434048 9.857361 L 29.688649 7.602760 Z M 30.470858 4.565951 L 26.306747 8.730061 L 22.142637 4.565951 L 22.165643 4.565951 C 24.903374 4.036810 27.710122 4.036810 30.424845 4.565951 Z M 26.306747 48.438648 L 26.306747 48.461654 C 14.067484 48.461654 4.174847 38.546010 4.174847 26.306747 C 4.174847 16.874232 10.156441 8.476993 19.082822 5.394170 L 23.776073 22.947851 C 21.912576 24.351225 21.544478 26.996930 22.947852 28.860427 C 24.351226 30.723924 26.973926 31.092022 28.837422 29.688648 C 30.700919 28.285274 31.069017 25.639568 29.665643 23.776072 C 29.435582 23.476992 29.159508 23.200918 28.837422 22.947851 L 33.553680 5.394170 L 33.530673 5.394170 C 45.079753 9.374232 51.222391 21.958586 47.242329 33.530671 C 44.159507 42.457051 35.762269 48.461652 26.306747 48.461652 Z M 26.306747 48.438648 Z" transform="scale(1.000000,1.000000) translate(18.404907,18.193856)" fill="url(#105553158974000140261929390064)" opacity="1.000000"></path>
        <path d="M 33.392637 1.613218 L 33.369631 1.590211 C 32.840490 0.923034 31.874232 0.808003 31.161042 1.314138 L 31.184048 1.314138 C 30.516870 1.774261 30.355827 2.694506 30.815950 3.361684 L 30.861962 3.407696 L 30.930981 3.522727 C 34.680981 9.090211 34.611962 16.383156 30.769938 21.904627 L 30.861962 21.766590 C 30.355827 22.410762 30.470858 23.331008 31.115030 23.814136 C 31.138036 23.837142 31.161042 23.860149 31.184048 23.860149 L 31.184048 23.883155 C 31.897238 24.366284 32.863496 24.228247 33.392637 23.561069 C 37.993864 16.981315 37.993864 8.192972 33.392637 1.613217 Z M 25.685582 5.754322 L 25.662576 5.777328 C 25.087423 6.467512 25.110429 7.502788 25.754601 8.169966 C 27.894171 10.723647 27.894171 14.450640 25.754601 17.004321 C 25.110429 17.671499 25.087423 18.706775 25.662576 19.419965 L 25.685582 19.419965 C 26.214723 20.064137 27.157975 20.133155 27.802147 19.604014 C 27.848159 19.581008 27.894171 19.534996 27.917177 19.488983 L 27.986196 19.442971 C 31.437116 15.462910 31.391104 9.527327 27.848159 5.616284 L 27.917177 5.685302 C 27.342024 5.087143 26.375766 5.064137 25.777607 5.639290 C 25.754601 5.685302 25.708588 5.731315 25.685582 5.754321 Z M 12.157975 5.754322 C 11.628834 5.133156 10.685583 5.041131 10.041411 5.570273 C 9.995399 5.616285 9.949386 5.639291 9.926380 5.685303 L 9.857362 5.754322 C 6.406442 9.711377 6.452454 15.646960 9.995399 19.581009 L 9.926380 19.488984 C 10.501534 20.087144 11.467791 20.110150 12.065951 19.534996 C 12.088957 19.488984 12.134969 19.465978 12.157975 19.419966 L 12.180981 19.419966 C 12.756135 18.706776 12.733129 17.671500 12.088957 17.004322 C 9.949386 14.450641 9.949386 10.723647 12.088957 8.169967 C 12.733129 7.502789 12.756135 6.467513 12.180981 5.777329 Z M 6.659509 1.291131 C 5.946319 0.808003 4.980061 0.946039 4.450920 1.613217 C -0.150307 8.192971 -0.150307 16.981315 4.450920 23.561069 L 4.473926 23.584075 C 5.003067 24.251253 5.969325 24.366284 6.682515 23.860149 L 6.659509 23.860149 C 7.326687 23.400026 7.487730 22.479781 7.027607 21.812603 C 7.004601 21.789597 7.004601 21.789597 6.981595 21.766591 L 6.912576 21.651560 C 3.162577 16.084075 3.231595 8.791131 7.073619 3.269659 L 6.981595 3.407696 C 7.487730 2.763525 7.372699 1.843279 6.728527 1.360150 C 6.705521 1.337144 6.682515 1.314138 6.659509 1.314138 Z M 6.659509 1.291131 Z" transform="scale(1.000000,1.000000) translate(25.789878,31.913458)" fill="#fc8627" opacity="1.000000"></path>
        <path d="M 28.929448 15.493865 C 28.929448 24.650306 22.464724 30.401840 15.010736 30.401840 C 7.763804 30.401840 1.000000 24.512270 1.000000 15.493865 C 1.000000 7.211657 7.211656 1.000000 15.010736 1.000000 C 23.131901 1.000000 28.929448 7.625767 28.929448 15.493865 Z M 24.857362 15.585889 C 24.857362 9.742331 20.969325 4.519939 15.079755 4.519939 C 8.799080 4.519939 5.072087 9.903374 5.072087 15.585889 C 5.072087 22.648772 9.788344 26.881901 14.803682 26.881901 C 20.509203 26.881901 24.857362 22.234662 24.857362 15.585889 Z M 35.302147 20.164110 L 31.437116 20.164110 L 39.190183 1.046012 L 40.432514 1.046012 L 48.599692 20.164110 L 44.734661 20.164110 L 40.064416 8.085890 L 39.903373 8.085890 Z M 65.440183 9.857362 C 65.808281 11.030675 65.854293 12.480061 65.854293 13.308282 C 65.854293 17.449386 63.116563 20.762270 58.699386 20.762270 C 53.845092 20.762270 50.164110 16.483129 50.164110 10.409509 C 50.164110 3.783742 54.098159 1.046012 58.561349 1.046012 C 61.138036 1.046012 63.369631 1.874233 64.750000 3.162577 L 64.036809 6.130368 L 63.921779 6.130368 C 62.702454 4.980061 60.723926 4.151840 59.113497 4.151840 C 56.283742 4.151840 53.983129 5.509202 53.983129 9.857362 Z M 54.144172 12.503067 C 54.213190 15.447852 56.053681 17.679448 58.607362 17.679448 C 60.723926 17.679448 62.679447 15.792945 62.173312 12.503067 Z M 79.105828 20.509202 C 76.828221 20.463190 74.435583 18.553681 73.446319 16.322086 L 73.147239 16.322086 L 72.825153 20.164110 L 69.627301 20.164110 L 69.627301 1.621165 L 73.354294 1.621165 L 73.354294 10.846625 C 74.021472 13.929447 76.368098 16.322085 78.783742 16.621165 L 80.095091 16.621165 L 80.095091 20.509202 Z M 96.038343 18.760736 C 94.381901 20.003067 92.978527 20.762270 90.424846 20.762270 C 85.777607 20.762270 81.636503 16.368098 81.636503 10.317485 C 81.636503 4.819019 85.156441 1.046012 90.240797 1.046012 C 92.357361 1.046012 94.473926 1.943252 95.762270 3.024540 L 94.934049 5.923313 C 93.806748 5.049080 92.357362 4.220859 90.493865 4.220859 C 87.687116 4.220859 85.455521 6.061350 85.455521 10.409509 C 85.455521 14.757668 87.756135 17.610429 90.746932 17.610429 C 92.311349 17.610429 93.645705 16.943251 94.796012 15.907975 Z M 114.098158 3.323620 C 113.269937 3.783743 112.441716 4.773006 112.441716 6.176381 L 112.441716 14.711656 C 112.441716 19.013803 109.335888 20.762270 106.230060 20.762270 C 103.285275 20.762270 101.099692 19.726994 99.351226 18.691718 L 100.593557 15.907976 C 102.342023 17.058282 103.906440 17.725460 105.539876 17.725460 C 107.104293 17.725460 108.967790 16.828221 108.967790 14.090491 L 108.967790 12.273006 C 108.047545 12.388037 106.805213 12.480061 105.976993 12.480061 C 100.271471 12.480061 98.315950 9.328221 98.315950 6.590491 C 98.315950 3.070553 101.007668 1.046013 103.998465 1.046013 C 106.069017 1.046013 108.093557 1.920246 109.381901 3.599694 L 109.542944 3.599694 C 109.957054 2.334356 110.739262 1.529142 111.567483 1.000001 L 114.098158 3.162577 Z M 108.967790 6.498466 C 108.254600 5.026074 106.644170 4.059816 104.734661 4.059816 C 103.124232 4.059816 101.881901 4.888037 101.881901 6.636503 C 101.881901 8.500000 103.331287 9.811350 105.953986 9.811350 C 106.989262 9.811350 108.185581 9.696319 108.967790 9.581288 Z M 129.098157 18.346626 C 127.487728 19.680981 125.210120 20.762270 122.840489 20.762270 C 119.021470 20.762270 116.835888 18.346626 116.835888 15.608896 C 116.835888 13.055215 118.400305 11.766871 121.506133 10.064417 C 123.783740 8.822086 125.854292 7.717791 125.854292 6.222393 C 125.854292 4.888037 124.588955 4.105828 122.932513 4.105828 C 120.884967 4.105828 119.320550 4.980061 117.710121 6.084356 L 116.582820 3.323620 C 117.963189 2.081288 120.447851 1.046012 123.047544 1.046012 C 126.360427 1.046012 129.374231 2.771472 129.374231 6.222393 C 129.374231 8.546012 128.223924 10.110429 124.749998 12.134969 C 122.219323 13.630368 120.355826 14.504601 120.355826 15.907975 C 120.355826 16.851226 121.230059 17.725459 122.955520 17.725459 C 124.588955 17.725459 126.153372 16.989263 127.924845 15.608895 Z M 135.056746 25.547546 L 135.056746 20.371166 L 131.329752 18.967791 L 131.329752 17.265338 L 135.056746 17.265338 L 135.056746 1.621166 L 138.783739 1.621166 L 138.783739 17.265338 L 143.131899 17.265338 L 143.131899 20.164110 L 138.783739 20.164110 L 138.783739 26.628834 Z M 135.056746 25.547546 Z" transform="scale(1.000000,1.000000) translate(87.101223,17.572691)" opacity="1.000000"></path>
        <path d="M 3.806748 15.401840 L 1.000000 15.401840 L 1.000000 1.322086 L 9.282208 1.322086 L 9.282208 3.898773 L 3.806748 3.898773 Z M 15.447852 15.401840 L 12.641104 15.401840 L 12.641104 1.322086 L 15.447852 1.322086 Z M 19.013803 2.403374 C 19.888036 1.644172 21.889570 1.000000 23.523005 1.000000 C 25.846625 1.000000 28.354293 2.150307 28.354293 5.072086 C 28.354293 6.682515 27.411042 8.039877 25.133434 9.374233 C 22.924846 10.662576 22.234661 11.168711 22.234661 11.996932 C 22.234661 12.825153 23.131901 13.124233 23.983128 13.124233 C 25.179447 13.124233 26.214723 12.641104 27.273005 11.996932 L 28.055213 14.297545 C 27.180980 14.941717 25.570551 15.700920 23.822085 15.700920 C 20.808281 15.700920 19.312882 13.722392 19.312882 12.019938 C 19.312882 10.064417 20.233128 9.075153 22.809814 7.625767 C 24.742330 6.544478 25.386502 6.015337 25.386502 5.026073 C 25.386502 4.358896 24.765336 3.599693 23.453986 3.599693 C 22.142637 3.599693 20.923312 4.151840 20.026072 4.865031 Z M 41.582821 12.825153 L 41.582821 15.401840 L 30.792944 15.401840 L 30.792944 12.825153 L 34.796012 12.825153 L 34.796012 1.322086 L 37.579754 1.322086 L 37.579754 12.825153 Z M 53.223925 15.401840 L 44.895705 15.401840 L 44.895705 1.322087 L 53.453987 1.322087 L 53.453987 3.898774 L 47.702453 3.898774 L 47.702453 7.211657 L 52.671778 7.211657 L 52.671778 9.788344 L 47.702453 9.788344 L 47.702453 12.825154 L 53.223925 12.825154 Z M 59.136501 15.401840 L 57.319017 15.401840 L 57.319017 1.322087 L 60.125765 1.322087 L 60.125765 10.363497 L 60.217790 10.363497 L 68.384967 1.322087 L 70.133433 1.322087 L 70.133433 15.401840 L 67.349691 15.401840 L 67.349691 6.452454 L 67.234660 6.452454 Z M 83.154904 15.401840 L 80.348156 15.401840 L 80.348156 1.322087 L 83.154904 1.322087 Z M 89.366560 15.401840 L 87.549076 15.401840 L 87.549076 1.322087 L 90.355824 1.322087 L 90.355824 10.363497 L 90.447849 10.363497 L 98.615026 1.322087 L 100.363492 1.322087 L 100.363492 15.401840 L 97.579750 15.401840 L 97.579750 6.452454 L 97.464719 6.452454 Z M 119.849688 12.825153 L 119.849688 15.401840 L 109.059811 15.401840 L 109.059811 12.825153 L 113.062878 12.825153 L 113.062878 1.322086 L 115.846621 1.322086 L 115.846621 12.825153 Z M 134.734656 15.401840 L 131.927908 15.401840 L 131.927908 9.788344 L 125.969319 9.788344 L 125.969319 15.401840 L 123.162571 15.401840 L 123.162571 1.322087 L 125.969319 1.322087 L 125.969319 7.211657 L 131.927908 7.211657 L 131.927908 1.322087 L 134.734656 1.322087 Z M 147.434042 15.401840 L 139.105822 15.401840 L 139.105822 1.322087 L 147.664104 1.322087 L 147.664104 3.898774 L 141.912570 3.898774 L 141.912570 7.211657 L 146.881896 7.211657 L 146.881896 9.788344 L 141.912570 9.788344 L 141.912570 12.825154 L 147.434043 12.825154 Z M 166.345085 1.322087 L 169.335882 1.322087 L 163.492324 15.401840 L 161.835883 15.401840 L 156.061343 1.322087 L 159.052140 1.322087 L 160.133429 4.082823 L 165.263797 4.082823 Z M 162.618091 10.800614 L 162.756128 10.800614 L 164.366557 6.475460 L 161.030668 6.475460 Z M 181.322079 10.938650 C 181.322079 13.791411 179.366557 15.401841 176.237723 15.401841 L 172.441711 15.401841 L 172.441711 1.322087 L 175.248459 1.322087 L 175.248459 6.314418 L 176.421772 6.314418 C 179.274533 6.314418 181.322079 8.200921 181.322079 10.938651 Z M 178.400300 10.892638 C 178.400300 9.374233 177.319011 8.845092 176.306741 8.845092 L 175.248459 8.845092 L 175.248459 12.917178 L 176.306741 12.917178 C 177.457048 12.917178 178.400300 12.226994 178.400300 10.892638 Z M 193.331280 10.938650 C 193.331280 13.791411 191.375759 15.401841 188.246924 15.401841 L 184.450912 15.401841 L 184.450912 1.322087 L 187.257661 1.322087 L 187.257661 6.314418 L 188.430973 6.314418 C 191.283734 6.314418 193.331280 8.200921 193.331280 10.938651 Z M 190.409501 10.892638 C 190.409501 9.374233 189.328213 8.845092 188.315943 8.845092 L 187.257661 8.845092 L 187.257661 12.917178 L 188.315943 12.917178 C 189.466249 12.917178 190.409501 12.226994 190.409501 10.892638 Z M 190.409501 10.892638 Z" transform="scale(1.000000,1.000000) translate(89.608888,54.681584)" fill="#767676" opacity="1.000000"></path>
    </g>
</svg>